PathFileType	4	(X/Y/Z)	/Users/itak/Documents/Research/Walk-IL/dataset/trc/00512_00183.trc
DataRate	CameraRate	NumFrames	NumMarkers	Units	OrigDataRate	OrigDataStartFrame	OrigNumFrames
100.000000	100.000000	4	54	mm	100.000000	105	422
Frame#	Time	RPSI			LPSI			L3			STRN			T10			C7			CLAV			RBAK			LBAK			LSHO			LUPA			LAEL			LAOL			LWTS			LWPS			LFRA			LIFD			LHPS			LHTS			RSHO			RUPA			RAEL			RAOL			RWTS			RWPS			RFRA			RIFD			RHTS			RHPS			RBHD			LFHD			RFHD			LBHD			LHIP			RASI			LASI			LKNE			LTHI			LANK			LTIP			LTOE			LMT1			LMT5			LHEE			RKNE			RTHI			RANK			RTIP			RTOE			RMT1			RMT5			RHEE			RHIP			*53			
		X1	Y1	Z1	X2	Y2	Z2	X3	Y3	Z3	X4	Y4	Z4	X5	Y5	Z5	X6	Y6	Z6	X7	Y7	Z7	X8	Y8	Z8	X9	Y9	Z9	X10	Y10	Z10	X11	Y11	Z11	X12	Y12	Z12	X13	Y13	Z13	X14	Y14	Z14	X15	Y15	Z15	X16	Y16	Z16	X17	Y17	Z17	X18	Y18	Z18	X19	Y19	Z19	X20	Y20	Z20	X21	Y21	Z21	X22	Y22	Z22	X23	Y23	Z23	X24	Y24	Z24	X25	Y25	Z25	X26	Y26	Z26	X27	Y27	Z27	X28	Y28	Z28	X29	Y29	Z29	X30	Y30	Z30	X31	Y31	Z31	X32	Y32	Z32	X33	Y33	Z33	X34	Y34	Z34	X35	Y35	Z35	X36	Y36	Z36	X37	Y37	Z37	X38	Y38	Z38	X39	Y39	Z39	X40	Y40	Z40	X41	Y41	Z41	X42	Y42	Z42	X43	Y43	Z43	X44	Y44	Z44	X45	Y45	Z45	X46	Y46	Z46	X47	Y47	Z47	X48	Y48	Z48	X49	Y49	Z49	X50	Y50	Z50	X51	Y51	Z51	X52	Y52	Z52	X53	Y53	Z53	X54	Y54	Z54	

106	1.05	-1187.818115234375	982.8427734375	-472.2679443359375	-1129.291748046875	981.1334228515625	-581.7666625976562	-1153.278930664062	1049.705932617188	-529.2152099609375	-911.1234130859375	1171.490844726562	-446.5857238769531	-1142.5595703125	1154.797973632812	-523.615234375	-1059.408203125	1372.594116210938	-496.3315124511719	-927.9649047851562	1271.089965820312	-454.1949157714844	-1149.937744140625	1260.646484375	-434.6046447753906	-1063.876342773438	1322.282348632812	-587.358154296875	-946.3259887695312	1354.589599609375	-626.7468872070312	-966.568359375	1237.125244140625	-699.297119140625	-998.5604248046875	1032.055541992188	-742.4680786132812	-1083.819213867188	1036.76171875	-690.995849609375	-927.9647216796875	844.1041870117188	-684.707275390625	-997.008056640625	808.8501586914062	-737.7005004882812	-988.0167846679688	953.3368530273438	-740.6090087890625	-935.8190307617188	689.5258178710938	-662.939697265625	-977.1317138671875	755.6024780273438	-727.1618041992188	-918.1384887695312	764.7363891601562	-698.1402587890625	-1053.145751953125	1358.283203125	-339.1082763671875	-1095.192260742188	1295.869384765625	-290.2138061523438	-1116.21923828125	1028.793212890625	-247.6699523925781	-1169.059204101562	1013.813659667969	-284.8162231445312	-980.1286010742188	858.9315795898438	-303.1302490234375	-1036.184692382812	826.9752807617188	-239.2536315917969	-1106.70556640625	976.4857177734375	-243.1940765380859	-961.247314453125	698.4638671875	-304.4739990234375	-946.3699340820312	766.53759765625	-285.8551635742188	-1004.602966308594	758.3865966796875	-244.7709350585938	-1066.426879882812	1507.953735351562	-423.1978759765625	-895.25439453125	1584.031982421875	-494.9790649414062	-956.6956176757812	1580.984130859375	-383.3763427734375	-1002.55029296875	1505.463134765625	-569.0973510742188	-989.1093139648438	892.2772216796875	-660.213134765625	-1042.143920898438	890.5964965820312	-337.3068237304688	-935.0158081054688	907.3467407226562	-553.8370971679688	-1030.466430664062	470.4415893554688	-623.1697387695312	-999.6166381835938	624.4148559570312	-639.5676879882812	-1147.670043945312	48.27386474609375	-667.590576171875	-1063.76904296875	322.5991516113281	-640.7975463867188	-1002.21142578125	41.8069953918457	-522.4608154296875	-1086.675903320312	41.55489349365234	-528.274169921875	-1048.543823242188	50.3004150390625	-622.584716796875	-1220.10107421875	35.60160827636719	-640.4910888671875	-1171.987060546875	473.4554443359375	-374.4363098144531	-1158.679321289062	729.7467651367188	-320.3952941894531	-1276.36376953125	51.92536926269531	-445.4889221191406	-1176.33935546875	327.0528564453125	-393.7096862792969	-1083.386108398438	47.85071182250977	-383.2368469238281	-1118.720458984375	44.4760627746582	-449.8700256347656	-1185.375366210938	53.08022308349609	-379.0023498535156	-1301.928833007812	37.86269760131836	-511.5510864257812	-1167.351684570312	862.3346557617188	-323.6091613769531	nan	nan	nan	
107	1.06	-1185.330688476562	982.962646484375	-471.2662353515625	-1126.693481445312	981.2236938476562	-580.673828125	-1150.238037109375	1049.785278320312	-527.8531494140625	-906.6834716796875	1169.88232421875	-446.5565490722656	-1138.705200195312	1154.85205078125	-521.8582153320312	-1054.092407226562	1371.971069335938	-494.8575134277344	-922.9920043945312	1269.569213867188	-453.8687133789062	-1144.632202148438	1260.446166992188	-432.508056640625	-1059.369873046875	1321.82470703125	-585.8580322265625	-941.9078979492188	1353.567626953125	-625.9880981445312	-963.3038940429688	1236.650634765625	-698.9650268554688	-996.3497924804688	1032.008178710938	-743.0573120117188	-1081.304321289062	1036.670532226562	-690.9698486328125	-923.3055419921875	845.2252197265625	-686.220703125	-993.3966064453125	808.9574584960938	-737.38525390625	-985.3414306640625	953.4682006835938	-741.183349609375	-928.34423828125	690.6748046875	-664.5859985351562	-972.4087524414062	756.0758056640625	-727.760986328125	-912.672119140625	766.1634521484375	-700.2418823242188	-1046.587280273438	1357.486083984375	-337.7122192382812	-1088.323852539062	1295.167236328125	-288.4400024414062	-1108.761474609375	1028.435791015625	-245.6664276123047	-1162.223022460938	1013.037780761719	-281.68115234375	-970.895263671875	861.7922973632812	-302.76123046875	-1025.669677734375	827.9692993164062	-238.5948944091797	-1098.579345703125	976.5468139648438	-241.2944488525391	-946.8480834960938	702.3636474609375	-304.6387939453125	-934.1835327148438	770.6873168945312	-285.6717529296875	-991.9796752929688	760.4249267578125	-244.4941253662109	-1061.07275390625	1506.593383789062	-422.3426818847656	-890.0354614257812	1583.024291992188	-494.0650634765625	-951.5470581054688	1579.901733398438	-382.5025634765625	-997.0687255859375	1504.121948242188	-568.1767578125	-987.4041137695312	891.8294677734375	-659.6840209960938	-1039.949340820312	889.4691772460938	-336.88720703125	-932.750732421875	906.4664306640625	-553.497802734375	-1029.966552734375	470.0963745117188	-623.6445922851562	-998.677001953125	624.0669555664062	-639.7333984375	-1147.717041015625	48.13050842285156	-667.686279296875	-1063.455444335938	322.4088745117188	-641.0597534179688	-1002.256530761719	41.77957534790039	-522.5646362304688	-1086.697998046875	41.51103973388672	-528.3432006835938	-1048.551513671875	50.19531631469727	-622.7161254882812	-1220.211059570312	35.38021469116211	-640.622802734375	-1167.005981445312	472.8903198242188	-375.127197265625	-1155.848022460938	728.8497924804688	-320.3649291992188	-1276.2041015625	52.31274032592773	-445.3907470703125	-1172.566284179688	326.4644470214844	-393.4674072265625	-1083.2099609375	47.38743591308594	-383.384521484375	-1118.666870117188	44.16339111328125	-449.851806640625	-1185.208984375	52.9453010559082	-378.928466796875	-1301.970458984375	38.69058227539062	-511.4091796875	-1165.016357421875	861.607666015625	-322.9898376464844	nan	nan	nan	
108	1.07	-1182.83984375	982.9786987304688	-470.19189453125	-1124.066162109375	981.2401733398438	-579.4987182617188	-1147.117431640625	1049.81103515625	-526.4160766601562	-902.2153930664062	1168.223266601562	-446.4549865722656	-1134.751098632812	1154.815185546875	-520.0547485351562	-1048.751708984375	1371.260498046875	-493.3717651367188	-917.985107421875	1267.989379882812	-453.5007934570312	-1139.286743164062	1260.192993164062	-430.4196166992188	-1054.793701171875	1321.2666015625	-584.3665161132812	-937.4105834960938	1352.435791015625	-625.2084350585938	-959.8903198242188	1236.048095703125	-698.58349609375	-993.8410034179688	1031.8447265625	-743.5147094726562	-1078.581298828125	1036.418579101562	-690.9389038085938	-918.0372314453125	846.5488891601562	-687.3753051757812	-988.9609985351562	809.0966796875	-736.82568359375	-982.1907348632812	953.5565185546875	-741.5299072265625	-919.5884399414062	692.0303955078125	-666.2810668945312	-966.6422729492188	756.647216796875	-728.2274169921875	-906.3342895507812	767.9050903320312	-702.1548461914062	-1040.017822265625	1356.668090820312	-336.3607177734375	-1081.482788085938	1294.471435546875	-286.7251586914062	-1101.565307617188	1028.160278320312	-243.6419830322266	-1155.584594726562	1012.320251464844	-278.5753479003906	-961.907958984375	864.762451171875	-302.136474609375	-1015.642883300781	828.8795776367188	-238.0050659179688	-1090.740844726562	976.6577758789062	-239.3796081542969	-932.5520629882812	706.6197509765625	-304.74755859375	-922.3382568359375	775.0467529296875	-285.2010192871094	-979.7654418945312	762.4922485351562	-244.260986328125	-1055.629638671875	1505.14892578125	-421.4765014648438	-884.7073364257812	1581.953735351562	-493.0700988769531	-946.3128051757812	1578.716186523438	-381.5560302734375	-991.4703979492188	1502.755004882812	-567.2350463867188	-985.5888671875	891.3618774414062	-659.0346069335938	-1037.764404296875	888.3004150390625	-336.3595275878906	-930.378662109375	905.5541381835938	-553.0355224609375	-1029.444580078125	469.7090454101562	-624.2426147460938	-997.6248168945312	623.7095947265625	-639.9214477539062	-1147.794677734375	47.98955154418945	-667.7791748046875	-1063.199462890625	322.2236328125	-641.4334106445312	-1002.28662109375	41.74901962280273	-522.711181640625	-1086.708618164062	41.4766960144043	-528.4296264648438	-1048.5517578125	50.0773811340332	-622.87646484375	-1220.327880859375	35.17318725585938	-640.7265625	-1161.152587890625	472.2651977539062	-375.693115234375	-1152.684814453125	727.8263549804688	-320.30712890625	-1275.9794921875	53.04122161865234	-445.2525024414062	-1168.230102539062	325.9164123535156	-393.0165710449219	-1083.050415039062	46.8836669921875	-383.4679260253906	-1118.623046875	43.85913467407227	-449.7704467773438	-1185.02978515625	52.86294937133789	-378.785400390625	-1301.934692382812	40.04433441162109	-511.2483520507812	-1162.637451171875	860.7505493164062	-322.2988891601562	nan	nan	nan	
109	1.08	-1180.346435546875	982.8673706054688	-469.0433654785156	-1121.411743164062	981.1741333007812	-578.2428588867188	-1143.92138671875	1049.781494140625	-524.9058227539062	-897.7374877929688	1166.521240234375	-446.2525024414062	-1130.69873046875	1154.681030273438	-518.2101440429688	-1043.394409179688	1370.468505859375	-491.8816528320312	-912.9607543945312	1266.359619140625	-453.0687561035156	-1133.92578125	1259.889404296875	-428.3521728515625	-1050.14892578125	1320.603881835938	-582.887451171875	-932.8318481445312	1351.191528320312	-624.3987426757812	-956.3110961914062	1235.296997070312	-698.1312255859375	-991.0026245117188	1031.551391601562	-743.8037109375	-1075.626586914062	1035.97607421875	-690.8767700195312	-912.1242065429688	848.0807495117188	-688.0979614257812	-983.6205444335938	809.26513671875	-735.99755859375	-978.5167236328125	953.603759765625	-741.609130859375	-909.5942993164062	693.6251220703125	-667.8969116210938	-959.788818359375	757.340576171875	-728.4840698242188	-899.1040649414062	769.9598999023438	-703.755126953125	-1033.473999023438	1355.83203125	-335.0500183105469	-1074.718139648438	1293.787231445312	-285.0686950683594	-1094.703857421875	1027.9580078125	-241.5939483642578	-1149.212280273438	1011.67041015625	-275.5211486816406	-953.265380859375	867.7845458984375	-301.1941833496094	-1006.238647460938	829.6484375	-237.4922332763672	-1083.27880859375	976.794921875	-237.4509887695312	-918.5083618164062	711.1884765625	-304.764404296875	-910.9783325195312	779.5390014648438	-284.3841552734375	-968.116455078125	764.5191040039062	-244.0791778564453	-1050.10986328125	1503.633544921875	-420.5954895019531	-879.2774658203125	1580.824951171875	-491.9871520996094	-941.001953125	1577.433349609375	-380.5315856933594	-985.7678833007812	1501.37646484375	-566.269287109375	-983.6432495117188	890.8798217773438	-658.264892578125	-1035.575927734375	887.1001586914062	-335.7110290527344	-927.9022216796875	904.60693359375	-552.4452514648438	-1028.912719726562	469.2802429199219	-624.988525390625	-996.4530029296875	623.3411865234375	-640.1387939453125	-1147.906372070312	47.85083770751953	-667.8718872070312	-1063.026123046875	322.0479736328125	-641.9467163085938	-1002.29638671875	41.7210693359375	-522.9158935546875	-1086.703247070312	41.46077346801758	-528.5391845703125	-1048.54736328125	49.94798278808594	-623.0729370117188	-1220.449462890625	34.98224258422852	-640.8026733398438	-1154.375244140625	471.5997924804688	-376.0396118164062	-1149.161376953125	726.6926879882812	-320.199951171875	-1275.660400390625	54.22650527954102	-445.075927734375	-1163.291259765625	325.4643249511719	-392.3116149902344	-1082.914916992188	46.35409545898438	-383.4771118164062	-1118.580688476562	43.5945930480957	-449.6245422363281	-1184.828369140625	52.87717056274414	-378.577392578125	-1301.776000976562	42.06362533569336	-511.0753479003906	-1160.210693359375	859.7637329101562	-321.524658203125	nan	nan	nan	
